# xmcd
#
# Track frame offsets:
#	150
#	4031
#	47768
#	65781
#	82451
#	113106
#	136276
#	144868
#	154063
#	164053
#	224132
#	273556
#	301629
#
# Disc length: 4373 seconds
#
# Revision: 1
# Processed by: cddbd v1.5.2PL0 Copyright (c) Steve Scherf et al.
# Submitted via: audiograbber 1.83.01
#
DISCID=c211130d
DTITLE=Grateful Dead - 71-08-05A Hollywood Palladium, Hollywood CA
DYEAR=1900
DGENRE=
TTITLE0=Introduction
TTITLE1=Bertha
TTITLE2=Me and My Uncle
TTITLE3=Mr Charlie
TTITLE4=Sugaree
TTITLE5=El Paso
TTITLE6=Tuning
TTITLE7=Cryptical Envelopment
TTITLE8=Drums
TTITLE9=The Other One
TTITLE10=Wharf Rat
TTITLE11=Me and Bobby McGee
TTITLE12=Casey Jones
EXTD=
EXTT0=
EXTT1=
EXTT2=
EXTT3=
EXTT4=
EXTT5=
EXTT6=
EXTT7=
EXTT8=
EXTT9=
EXTT10=
EXTT11=
EXTT12=
PLAYORDER=
